# xmcd
#
# Track frame offsets:
#	150
#	23034
#	43845
#	73751
#	93265
#	114915
#	134064
#	159807
#	179609
#	194708
#	216367
#
# Disc length: 3227 seconds
#
# Revision: 0
# Processed by: cddbd v1.5.2PL0 Copyright (c) Steve Scherf et al.
# Submitted via: EasyCDDAExtractor 10.0.6.1
#
DISCID=a10c990b
DTITLE=The Black Crowes - Warpaint
DYEAR=2008
DGENRE=R&B
TTITLE0=Goodbye Daughters of the Revolution
TTITLE1=Walk Believer Walk
TTITLE2=Oh Josephine
TTITLE3=Evergreen
TTITLE4=Wee Who See The Deep
TTITLE5=Locust Street
TTITLE6=Movin' On Down The Line
TTITLE7=Wounded Bird
TTITLE8=God's Got It
TTITLE9=There's Gold In Them Hills
TTITLE10=Whoa Mule
EXTD=
EXTT0=
EXTT1=
EXTT2=
EXTT3=
EXTT4=
EXTT5=
EXTT6=
EXTT7=
EXTT8=
EXTT9=
EXTT10=
PLAYORDER=
